<svg width="400" height="50" xmlns="http://www.w3.org/2000/svg">
  <rect width="400" height="50" fill="#2c2416" />
  <rect x="15" y="5" width="40" height="40" fill="none" stroke="#d4b483" stroke-width="2" />
  <rect x="75" y="5" width="40" height="40" fill="none" stroke="#d4b483" stroke-width="2" />
  <rect x="135" y="5" width="40" height="40" fill="none" stroke="#d4b483" stroke-width="2" />
  <rect x="195" y="5" width="40" height="40" fill="none" stroke="#d4b483" stroke-width="2" />
  <rect x="255" y="5" width="40" height="40" fill="none" stroke="#d4b483" stroke-width="2" />
  <rect x="315" y="5" width="40" height="40" fill="none" stroke="#d4b483" stroke-width="2" />
  <rect x="0" y="0" width="10" height="10" fill="#d4b483" />
  <rect x="0" y="20" width="10" height="10" fill="#d4b483" />
  <rect x="0" y="40" width="10" height="10" fill="#d4b483" />
  <rect x="60" y="0" width="10" height="10" fill="#d4b483" />
  <rect x="60" y="20" width="10" height="10" fill="#d4b483" />
  <rect x="60" y="40" width="10" height="10" fill="#d4b483" />
  <rect x="120" y="0" width="10" height="10" fill="#d4b483" />
  <rect x="120" y="20" width="10" height="10" fill="#d4b483" />
  <rect x="120" y="40" width="10" height="10" fill="#d4b483" />
  <rect x="180" y="0" width="10" height="10" fill="#d4b483" />
  <rect x="180" y="20" width="10" height="10" fill="#d4b483" />
  <rect x="180" y="40" width="10" height="10" fill="#d4b483" />
  <rect x="240" y="0" width="10" height="10" fill="#d4b483" />
  <rect x="240" y="20" width="10" height="10" fill="#d4b483" />
  <rect x="240" y="40" width="10" height="10" fill="#d4b483" />
  <rect x="300" y="0" width="10" height="10" fill="#d4b483" />
  <rect x="300" y="20" width="10" height="10" fill="#d4b483" />
  <rect x="300" y="40" width="10" height="10" fill="#d4b483" />
  <rect x="360" y="0" width="10" height="10" fill="#d4b483" />
  <rect x="360" y="20" width="10" height="10" fill="#d4b483" />
  <rect x="360" y="40" width="10" height="10" fill="#d4b483" />
  <rect x="390" y="0" width="10" height="10" fill="#d4b483" />
  <rect x="390" y="20" width="10" height="10" fill="#d4b483" />
  <rect x="390" y="40" width="10" height="10" fill="#d4b483" />
</svg>
